<svg xmlns="http://www.w3.org/2000/svg" width="500" height="351" fill="none"><path fill="#1A1A1A" d="M256.069 147.638a8.658 8.658 0 0 0 3.299-1.272 8.774 8.774 0 0 0 2.53-2.49 8.896 8.896 0 0 0 1.292-6.87 9.108 9.108 0 0 0-2.428-4.665 8.955 8.955 0 0 0-4.581-2.515 8.884 8.884 0 0 0-5.19.484 8.992 8.992 0 0 0-4.05 3.318 9.15 9.15 0 0 0-1.545 5.035 9.154 9.154 0 0 0 1.482 5.055 9.007 9.007 0 0 0 4.008 3.37 8.882 8.882 0 0 0 5.183.55z"/><path fill="#1A1A1A" d="M209.678 156.917c7.766 2.918 11.109 3.57 15.814 21.539 3.615 14.274 6.825 19.641 23.393 39.731a4.922 4.922 0 0 0 3.06 1.818 4.886 4.886 0 0 0 3.474-.73 4.987 4.987 0 0 0 2.09-2.901 5.037 5.037 0 0 0-.376-3.569c-5.493-11.955 18.921-27.124 26.605-36.824 35.351 1.718 60.181-5.847 75.558-23.165a60.17 60.17 0 0 0 13.212-29.735 60.477 60.477 0 0 0-4.154-32.328c-11.186-30.384-37.864-44.73-64.385-56.892-23.851-10.989-59.437-24.774-93.321-16.749-83.32 19.595-78.249 116.679-.97 139.805zm17.265-.623c-9.094-11.255-32.959-10.129-51.547-32.04-29.531-34.76-12.969-78.355 28.136-93.776 52.443-19.45 181.847 31.306 156.217 101.021-12.144 32.969-54.023 35.516-78.265 33.98a126.635 126.635 0 0 0-33.278 36.95c-19.782-21.418-8.678-30.741-21.263-46.135z"/><path fill="#1A1A1A" d="M259.54 123.911a2.878 2.878 0 0 0 1.781.224 2.903 2.903 0 0 0 1.572-.876 129.67 129.67 0 0 1 8.476-19.752c5.588-4.474 13.463-6.397 18.101-13.16a19.599 19.599 0 0 0 3.359-10.82 19.603 19.603 0 0 0-3.182-10.874 19.274 19.274 0 0 0-8.64-7.229 19.019 19.019 0 0 0-11.158-1.122c-14.384 3.58-20.177 22.55-11.404 23.318a4.376 4.376 0 0 0 3.295-.996c.456-.38.832-.848 1.106-1.378a4.53 4.53 0 0 0 .49-1.703c.912-9.425 14.828-13.435 18.253-3.552 2.379 7.092-2.182 10.193-10.029 14.975-11.581 6.812-11.462 7.44-13.734 26.637.081 2.458-.855 4.985 1.714 6.308zM145.847 274.789a6.064 6.064 0 0 0 2.029-1.507c.568-.642 1-1.399 1.27-2.225.27-.827.373-1.705.303-2.58a6.708 6.708 0 0 0-.714-2.512 6.735 6.735 0 0 0-2.554-2.848 6.336 6.336 0 0 0-3.628-.931 6.172 6.172 0 0 0-3.48 1.298 6.453 6.453 0 0 0-2.159 3.091 6.822 6.822 0 0 0-.11 3.842 6.823 6.823 0 0 0 1.976 3.297 6.45 6.45 0 0 0 3.396 1.642 6.179 6.179 0 0 0 3.671-.567z"/><path fill="#1A1A1A" d="M115.681 289.898c5.896.629 8.32.473 14.958 12.299 5.19 9.417 8.415 12.616 23.618 23.752a3.496 3.496 0 0 0 2.45.721 3.406 3.406 0 0 0 2.252-1.157 3.635 3.635 0 0 0 .889-2.434 3.773 3.773 0 0 0-.934-2.452c-6.043-7.432 7.886-22.649 11.338-30.918 24.651-5.304 40.304-15.227 47.608-30.296 3.238-7.291 4.437-15.406 3.463-23.441a45.301 45.301 0 0 0-8.977-22.07c-13.449-19.401-34.522-24.616-55.074-28.318-18.492-3.364-45.589-6.541-67.386 5.375-53.625 29.205-31.76 96.851 25.795 98.939zm11.762-3.624c-8.388-6.274-24.597-1.078-41.535-13.129-26.9-19.109-23.756-52.959 1.611-71.431 32.406-23.409 131.059-11.415 126.618 42.557-2.116 25.529-30.452 35.05-47.425 38.435-7.334 9.513-12.74 20.47-15.904 32.238-17.667-11.483-11.791-20.116-23.365-28.67z"/><path fill="#1A1A1A" d="M143.745 257.388c.432.083.875.024 1.268-.17.392-.194.712-.512.915-.909a96.328 96.328 0 0 1 2.094-15.516c2.999-4.19 8.054-7 9.965-12.633a14.6 14.6 0 0 0 .263-8.263 14.606 14.606 0 0 0-4.248-7.095c-2.059-1.889-4.605-3.113-7.313-3.513a13.219 13.219 0 0 0-7.89 1.265c-9.221 5.181-9.617 19.649-3.434 18.574a3.062 3.062 0 0 0 2.079-1.311c.241-.353.411-.753.5-1.177.088-.424.093-.864.014-1.294-1.156-6.826 7.661-12.224 11.889-5.874 2.979 4.571.427 7.602-4.067 12.428-6.68 6.947-6.479 7.368-4.409 21.348.521 1.722.355 3.679 2.374 4.14zm220.763 26.388a5.583 5.583 0 0 0 2.237-.602 5.803 5.803 0 0 0 1.831-1.47 6.038 6.038 0 0 0 1.126-2.098c.235-.77.315-1.581.237-2.382a6.163 6.163 0 0 0-1.219-3.287 5.806 5.806 0 0 0-2.78-2.016 5.668 5.668 0 0 0-3.405-.064 5.924 5.924 0 0 0-2.881 1.909 6.258 6.258 0 0 0-1.386 3.239 6.267 6.267 0 0 0 .575 3.477 5.923 5.923 0 0 0 2.343 2.542 5.663 5.663 0 0 0 3.322.752z"/><path fill="#1A1A1A" d="M333.701 286.506c4.816 2.521 6.935 3.204 8.615 15.522 1.257 9.776 2.929 13.589 12.145 28.201a3.2 3.2 0 0 0 1.846 1.438 3.12 3.12 0 0 0 2.31-.228 3.334 3.334 0 0 0 1.577-1.776c.297-.773.307-1.63.029-2.405-2.651-8.371 14.346-16.658 20.072-22.547 22.804 3.773 39.49.581 50.789-9.81 5.215-5.127 8.968-11.643 10.842-18.822a41.539 41.539 0 0 0-.227-21.84c-4.938-21.068-21.152-32.607-37.43-42.679-14.635-9.092-36.67-20.92-59.266-18.095-55.553 6.855-59.674 71.892-11.302 93.041zm11.249.869c-5.041-8.172-20.61-9.197-30.997-25.172-16.506-25.347-2.433-53.151 25.413-60.365 35.509-9.054 115.59 34.373 93.64 78.899-10.396 21.055-37.761 19.637-53.372 16.812-9.455 5.642-17.752 13.166-24.411 22.135-11.199-15.736-3.283-21.12-10.273-32.309z"/><path fill="#1A1A1A" d="M368.571 268.231c.34.217.738.315 1.138.282.4-.033.78-.197 1.087-.467a88.125 88.125 0 0 1 7.007-12.525c3.966-2.564 9.223-3.259 12.747-7.418a13.381 13.381 0 0 0 3.006-6.957 13.398 13.398 0 0 0-1.234-7.479 12.676 12.676 0 0 0-5.054-5.457 12.12 12.12 0 0 0-7.153-1.577c-9.606 1.315-14.812 13.518-9.179 14.682.376.087.766.095 1.146.023.38-.072.743-.222 1.068-.441.324-.219.604-.503.822-.835.218-.333.371-.706.448-1.099 1.311-6.209 10.646-7.845 12.114-1.008 1.001 4.9-2.194 6.627-7.65 9.228-8.034 3.676-8.004 4.103-10.944 16.719-.135 1.644-.935 3.257.631 4.329zm72.498-214.135c-1.922.052-37.298 14.424-37.695 19.176-.06.729.542 1.237 1.792 1.455.984.173 34.845-18.634 36.236-19.535.54-.354.351-1.109-.333-1.096zm3.023 58.068c-1.532-1.937-33.164-11.625-36.369-12.132-1.56-.249-2.608 1.119-2.107 2.169 1.387 2.893 33.949 10.401 37.834 11.027.642.098.932-.697.642-1.064zM396.649 16.58c-.551-.354-1.268 1.35-2.604 4.135-5.275 11.009-7.104 12.977-12.511 29.658-.675 2.086-.848 2.952-.384 4.155.24.618.676.967 1.164 1.041 2.435.363 1.594-2.897 12.011-30.086 2.392-6.25 3.198-8.36 2.324-8.902zM244.311 284.838c1.617-.044 31.381-12.136 31.715-16.134.051-.614-.456-1.041-1.507-1.225-.828-.146-29.318 15.678-30.488 16.437-.455.297-.295.932.28.922zm-2.544-48.857c1.289 1.63 27.903 9.781 30.6 10.207 1.313.21 2.194-.941 1.773-1.824-1.167-2.434-28.564-8.752-31.832-9.278-.54-.083-.785.586-.541.895zm39.918 80.42c.463.299 1.066-1.135 2.19-3.478 4.438-9.262 5.977-10.919 10.526-24.953.569-1.756.714-2.484.324-3.496-.202-.52-.569-.814-.98-.876-2.048-.305-1.341 2.438-10.105 25.313-2.013 5.26-2.691 7.034-1.955 7.49zM79.816 138.498c-.275 1.149 2.617 24.432 5.373 25.424.423.152.82-.124 1.15-.831.259-.556-5.507-23.646-5.82-24.616-.124-.377-.602-.384-.703.023zm34.94 7.458c-1.394.601-12.183 17.828-12.994 19.649-.396.887.249 1.726.951 1.597 1.938-.363 11.582-18.489 12.572-20.695.161-.365-.265-.664-.529-.551zm-64.28 12.925c-.298.27.6.967 2.039 2.204 5.692 4.884 6.569 6.283 15.606 12.149 1.13.733 1.616.974 2.404.89.405-.044.682-.247.804-.525.603-1.387-1.466-1.407-15.94-11.921-3.329-2.415-4.452-3.23-4.913-2.797z"/></svg>