<svg xmlns="http://www.w3.org/2000/svg" width="500" height="351" fill="none"><path fill="#1A1A1A" d="M491.814 137.006C364.774 86.726 234.203 41.008 103.725 1.132 96.935-.94 89.547-.14 83.45 3.32 55.96 18.924 29.615 36.222 5.156 54.73.185 58.492-.497 64.22.26 70.418c.553 4.49 3.357 8.226 7.505 9.997a3205.98 3205.98 0 0 0 33.426 14.023C29.386 129.18 18.7 164.451 9.4 199.77c-.883 3.355 7.755 6.391 13.598.627 4.067-4.01 2.675-1.112 33.49-99.689 7.872 3.21 15.793 6.42 23.814 9.625-.105-2.85-.157-5.695-.21-8.545-24.261-9.715-47.85-19.445-70.744-29.212-6-2.559-6.972-10.684-1.76-14.63 24.32-18.397 50.514-35.598 77.85-51.118 5.117-2.906 11.343-3.593 17.109-1.839 130.377 39.844 260.847 85.524 387.786 135.764 5.512 2.183 7.288 9.391 3.027 13.798-18.9 19.557-42.775 39.649-70.963 59.712-5.419 3.856-12.383 4.956-18.621 2.947-71.229-22.95-137.297-45.511-199.076-67.959.31 2.898.524 5.805.803 8.703 53.499 19.408 110.21 38.905 170.686 58.665-12.787 37.919-24.383 76.376-34.523 114.877-.924 3.517 8.615 6.666 14.909.456 4.894-4.826 3.535-3.65 36.855-109.738 3.043.987 6.045 1.969 9.107 2.955 7.493 2.414 15.781 1.072 22.196-3.497a667.846 667.846 0 0 0 18.049-13.324c12.104 20.771 11.055 20.484 14.021 22.917 5.939 4.868 13.436.829 12.601-6.815-.379-3.461-1.856-5.951-13.513-26.39 15.204-12.301 28.725-24.538 40.366-36.585 5.455-5.643 5.725-20.455-4.447-24.481l.004.012z"/><path fill="#1A1A1A" d="M113.058 15.097a2.021 2.021 0 0 0-2.078-.214c-1.913.91-4.261 2.906-5.73 5.045-2.812-1.42-6.694-2.058-9.474-1.383-1.65.4-2.094 2.547-.746 3.572 2.42 1.844 7.311 2.895 10.374 2.778 2.368 7.895.859 12.147 1.263 15.563.23 1.949 3.776-5.368 1.033-16.052 3.53-1.484 7.993-7.324 5.358-9.31z"/><path fill="#1A1A1A" d="M123.085 41.703c.347-12.265-22.761-13.413-29.367-5.59-3.579 4.236-2.546 13.174-1.472 18.62.867 4.402 2.42 8.966 6.807 10.882 7.65 3.343 21.195 1.835 23.152-7.859 1.049-5.202 1.065-10.737.88-16.053zm-4.205 12.342c-.076 3.905-1.924 6.5-5.181 7.956-5.297 2.365-6.71-.586-5.16-1.645 1.799-1.225 7.868.465 8.602-7.204.376-3.91.174-2.907.844-5.522.056-.214.415-.239.456 0 .225 1.261.516 2.539.439 6.415zm-10.184-7.689c-6.371.283-14.937-3.084-12.4-6.989 2.184-3.36 7.284-4.047 10.931-4.123 7.509-.158 11.008 2.445 11.722 5.235-1.303 5.069-5.032 5.643-10.253 5.877zm152.908 173.703c6.194-3.925 6.376-8.578 1.384-13.542-12.944-12.888-38.17-22.873-55.75-27.15.092 1.419.157 2.838.242 4.257 16.66 4.204 40.47 13.631 52.664 25.759 3.514 3.505 2.917 4.984-.936 7.41a563.303 563.303 0 0 1-43.909 24.898c-7.323 3.731-9.8 4.18-18.843 1.495a397.79 397.79 0 0 1-82.022-34.753c2.417-2.939 5.092-5.656 7.925-8.219l-3.991-1.9a81.584 81.584 0 0 0-8.586 9.476 2.025 2.025 0 0 0-.38 1.633c.222 1.116 1.098 1.427 2.127 2.009-1.344 2.762-.178 1.189-5.464 19.578-10.664 37.115-21.268 64.147-21.482 70.348-.064 1.864 2.615 3.158 3.886 1.613 2.538-3.084 3.866-7.191 5.407-10.842 8.155-19.287 17.576-50.026 23.128-70.222.541-1.973 1.429-4.192 1.905-6.396a401.829 401.829 0 0 0 76.401 31.552c4.06 1.205 8.224 2.304 12.424 1.706-.399 3.311-.553 33.436-5.028 72.838-2.408 21.199-3.542 21.078-3.086 25.715.456 4.612 5.774 4.471 6.871 1.863 1.723-4.079 1.889-8.853 2.47-13.223 4.099-30.8 5.515-59.259 5.112-78.057-.073-3.379.302-7.438-.492-10.902 3.861-1.686 23.519-11.873 42.79-23.698.763 5.045 6.44 30.327 9.813 57.392.383 3.072.496 6.298 1.465 9.249 1.331 4.055 6.908 3.162 7.243-.982.516-6.355-8.353-56.11-13.3-68.905h.012z"/><path fill="#1A1A1A" d="M211.224 205.45c-1.553-9.949-.964-24.385-4.701-58.382-2.231-20.286-30.693-30.445-47.963-38.744C135.936 97.458 113.595 90.282 92.161 87c-3.865-.594-9.345-.922-12.343 3.064-1.743 2.316-1.86 5.195-1.832 7.94a474.983 474.983 0 0 0 2.732 46.258c1.255 11.541-.65 29.587 7.638 39.568 2.167 2.612 4.903 4.512 7.731 6.076l1.085 10.494c1.215 11.76 6.646 15.791 17.133 11.885a2.023 2.023 0 0 0 1.19-2.599 2.01 2.01 0 0 0-2.594-1.192c-11.742 4.37-11.222-3.768-12.533-16.441 30.056 14.124 54.875 26.612 80.417 35.731 2.219 11.809 2.772 16.546 5.16 20.391 2.159 3.464 5.915 5.821 9.769 5.433 3.099-.315 6.286-2.551 9.906-5.061a2.021 2.021 0 0 0 .512-2.81 2.006 2.006 0 0 0-2.804-.513c-2.603 1.799-6.016 4.16-8.022 4.362-2.437.275-4.725-1.605-5.935-3.55-1.796-2.882-2.159-5.894-4.192-16.719 7.904 2.688 17.846 6.084 23.652-.3 5.185-5.7 3.636-15.608 2.389-23.571l.004.004zm-5.374 20.847c-2.639 2.898-7.489 3.076-15.261.562-23.616-7.649-46.563-18.576-68.751-29.143-20.493-9.762-26.457-11.755-30.379-16.477-7.21-8.679-5.496-26.099-6.726-37.418a469.427 469.427 0 0 1-2.708-45.862c-.02-2.139.04-4.164 1.021-5.47 1.675-2.223 5.718-1.928 8.51-1.503 31.525 4.83 53.846 15.871 71.991 24.073 15.72 7.098 37.251 16.821 38.97 32.445a728.41 728.41 0 0 1 3.785 50.879c.302 7.823 4.882 22.056-.448 27.91l-.004.004zm10.583-139.228c-19.868 17.176-19.557 16.93-20.864 17.2-5.02 1.023-41.762-16.501-46.192-18.607 23.652-20.767 45.74-35.199 48.617-35.562.984-.134 2.199.283 3.264.642a799.031 799.031 0 0 1 40.123 14.788l-12.04 10.381 4.644 1.318 12.545-10.81c1.142-.982.839-2.842-.561-3.408a799.512 799.512 0 0 0-43.42-16.105c-4.124-1.403-5.851-1.164-9.345.926-15.062 8.99-31.024 21.037-48.794 36.823a2.021 2.021 0 0 0-.662 1.795c.194 1.354 1.222 1.585 3.159 2.506 4.112 1.957 40.507 19.413 47.972 19.413 3.542 0 4.176-1.052 16.934-12.043a147.09 147.09 0 0 1 4.612-9.266l.008.008z"/><path fill="#1A1A1A" d="M193.168 59.106c17.048 4.213 20.631 6.828 23.568 7.802.613.203 1.194.203 1.832.324.613.117 1.243-.667.67-1.156-1.602-1.367-1.812-1.58-5.754-3.133-6.375-2.51-13.295-4.196-20.219-4.572-.424-.025-.505.634-.097.735zm-6.831 8.417c4.027.639 8.602 2.074 11.988 3.477 1.327.55 2.634 1.237 4.063 1.491.803.142 1.448-.772.823-1.419-1.675-1.742-5.859-3.117-7.981-3.63-2.881-.7-5.798-.95-8.76-.885-.529.012-.698.877-.129.97l-.004-.004zm-10.213 7.159c5.69 2.203 7.731 1.872 17.883 5.838 1.977.772 3.829 1.544 5.919 1.936.626.117 1.348-.728.711-1.22-3.317-2.572-7.703-3.865-11.698-5.03-4.051-1.176-8.425-2.51-12.669-2.57-.638-.009-.678.84-.146 1.046zm4.987 12.302c3.733 1.196 6.852 1.443 12.073 2.825 1.364.36 2.643.78 4.067.756.678-.012.84-.853.327-1.212-1.957-1.383-11.217-3.57-16.386-2.988-.343.04-.436.505-.081.619zm52.035 46.145c-10.341-1.88-20.126-4.932-28.967-9.071 7.57-28.8 20.207-46.8 20.877-47.072.428-.161-.972-.469 34.935 9.739a191.66 191.66 0 0 1 5.858-2.539l-38.227-10.862c-3.175-.91-4.934-.34-6.758 2.417-9.361 14.129-16.233 30.129-21.01 48.919a2.02 2.02 0 0 0 1.069 2.316c11.439 5.587 24.884 9.278 37.142 11.069-1.643-1.646-3.277-3.267-4.923-4.92l.004.004z"/><path fill="#1A1A1A" d="M280.787 124.708c-11.326 6.246-22.459 12.896-33.244 19.962-5.032-4.992-24.948-24.974-29.794-29.789 25.916-20.132 52.539-31.135 54.597-30.816.722.097 1.525.817 2.291 1.54 7.828 7.446 14.667 15.81 20.53 24.853 1.017-.917 2.026-1.847 3.067-2.744-5.968-9.104-12.92-17.517-20.821-25.036-3.131-2.979-5.144-3.25-8.747-1.843-18.872 7.357-37.449 18.22-55.214 32.283a2.028 2.028 0 0 0-.17 3.024c33.708 33.387 32.397 33.137 33.999 33.137 1.307 0 9.135-5.951 25.412-15.439a282.709 282.709 0 0 1 8.09-9.132h.004z"/><path fill="#1A1A1A" d="M268.25 90.913c3.902 4.827 7.917 9.015 12.803 16.21 2.477 3.655 2.804 4.795 4.229 5.24.524.161 1.263-.195 1.355-.773.202-1.229-.439-2.263-1.101-3.258-4.334-6.525-10.233-13.757-16.64-18.256-.533-.372-.997.404-.646.837zm-6.762 5.514c4.737 4.289 6.092 7.074 7.892 7.535.52.134 1.251-.275 1.174-.893-.077-.619-.23-1.169-.658-1.65-2.134-2.397-4.89-4.333-7.642-5.983-.605-.363-1.307.502-.766.99zm-5.367 3.594c1.356 2.991 4.233 5.603 12.767 16.057 1.303 1.596 2.175 3.601 3.684 5.012.774.728 2.061.211 2.086-.865.048-2.211-1.477-4.002-2.797-5.631-1.456-1.799-3.046-3.513-4.636-5.195-7.392-7.81-8.275-8.922-10.321-10.163-.529-.319-1.005.295-.783.785zm-6.875 4.919c5.007 6.428 6.443 7.131 13.581 16.696 2.962 3.97 3.281 5.057 4.693 5.312.597.109 1.352-.158 1.477-.841.25-1.354-.505-2.32-1.263-3.363-4.556-6.27-11.411-14.315-17.75-18.766-.617-.432-1.13.461-.738.962zm-7.574 4.201c12.645 14.896 12.488 16.364 14.13 16.251.533-.037.985-.344 1.142-.87.315-1.075-.508-1.811-1.121-2.587-3.656-4.62-8.99-9.641-13.449-13.49-.484-.416-1.11.215-.698.7l-.004-.004zm-8.26 4.483c3.644 4.103 6.17 5.975 9.947 10.894 1.763 2.292 2.227 3.445 3.47 3.982.762.332 1.727-.04 1.718-.99-.016-1.803-1.565-3.339-2.634-4.661-2.966-3.667-4.903-5.365-7.38-7.305-2.478-1.94-2.328-1.795-4.479-2.761-.541-.243-1.065.364-.646.837l.004.004zm82.943 45.939c-1.788 0-38.752-13.603-49.424-17.751a2.024 2.024 0 0 1-.84-3.157c14.284-17.69 27.704-30.909 42.23-41.597 3.632-2.677 5.685-3.016 10.362-1.27a388.696 388.696 0 0 1 40.337 17.702c1.291.655 1.493 2.43.375 3.36a303.97 303.97 0 0 0-41.471 41.965 2.024 2.024 0 0 1-1.569.748zm-45.373-20.516c13.049 5.021 28.067 10.442 44.699 16.13a308.175 308.175 0 0 1 38.776-39.451 383.976 383.976 0 0 0-37.182-16.142c-3.394-1.265-4.039-1.12-6.569.74-13.642 10.037-26.316 22.387-39.724 38.727v-.004z"/><path fill="#1A1A1A" d="M311.355 104.892c18.416 6.213 17.726 8.602 21.253 8.679.794.016 1.339-.921.919-1.605-1.073-1.734-3.062-2.413-4.85-3.23-5.314-2.421-10.918-4.285-17.16-5.008-.694-.081-.759.962-.162 1.164zm-6.532 6.128c16.672 5.894 18.879 8.154 21.623 8.134.666-.004 1.291-.845.835-1.455-1.283-1.714-3.147-2.369-5.068-3.174-5.612-2.361-11.205-3.836-17.265-4.434-.561-.057-.597.764-.125.929zm-7.667 8.344c13.485 3.63 16.205 8.025 19.15 7.705.484-.052 1.001-.493.799-1.051-.637-1.738-2.506-2.454-4.043-3.226-3.914-1.968-9.696-3.828-15.76-4.511-.63-.073-.735.921-.146 1.083zm-7.17 6.974c7.675 2.676 12.739 3.88 21.543 8.384 3.777 1.932 5.1 3.052 6.771 3.007a1.096 1.096 0 0 0 .936-1.633c-1.146-2.082-4.382-3.1-6.428-4.067-6.577-3.092-15.333-6.399-22.596-7.361-.996-.133-1.069 1.374-.226 1.67zm3.491 11.751c5.741 1.997 11.858 4.087 18.024 6.957 1.88.874 3.728 2.026 5.838 2.191.912.073 1.17-1.067.682-1.649-1.368-1.641-3.563-2.389-5.471-3.198-8.865-3.767-14.219-4.673-18.956-5.154-.513-.052-.549.704-.117.853z"/></svg>